<svg xmlns="http://www.w3.org/2000/svg" width="500" height="500" style="width:100%;height:100%;transform:translate3d(0,0,0);content-visibility:visible" viewBox="0 0 500 500"><defs><clipPath id="a"><path d="M0 0h500v500H0z"/></clipPath><clipPath id="c"><path d="M0 0h500v500H0z"/></clipPath><clipPath id="b"><path d="M0 0h500v500H0z"/></clipPath></defs><g clip-path="url(#a)"><g clip-path="url(#b)" style="display:block"><path fill="#121330" d="M360.817 130.652c-5.624-6.666-15.414-7.5-22.08-1.875-6.665 5.624-7.498 15.414-1.874 22.08l84.986 100.817-84.986 97.484c-5.624 6.458-5 16.456 1.458 22.08 3.333 2.5 6.874 3.75 10.623 3.75 4.375 0 8.749-1.875 11.873-5.416l93.735-107.691c5-5.833 5.208-14.373.209-20.414l-93.944-110.815zm-199.551-1.875c-6.457-5.624-16.247-4.791-22.08 1.666L45.451 238.134c-4.999 5.833-5.207 14.373-.208 20.414l93.735 111.023c3.124 3.542 7.707 5.416 12.081 5.416 3.541 0 7.083-1.25 9.999-3.75 6.665-5.623 7.499-15.413 1.874-22.079L77.946 248.341l84.986-97.484c5.625-6.458 4.791-16.248-1.666-22.08zm124.147-5.833c-8.332-2.29-16.872 2.5-19.164 10.832l-62.49 223.922c-2.291 8.332 2.5 16.873 10.832 19.164 1.458.417 2.708.625 4.166.625 6.874 0 13.123-4.583 14.998-11.457l62.49-223.922c2.29-8.124-2.5-16.872-10.832-19.164z" class="primary design" style="display:block"/><g class="primary design" style="display:none"><path/><path/><path/></g><path fill="none" class="primary design" style="display:none"/><path fill="none" class="primary design" style="display:none"/><path fill="none" class="primary design" style="display:none"/></g><g clip-path="url(#c)" opacity="0" style="display:block"><g class="primary design" style="display:none"><path/><path/><path/></g><path fill="none" class="primary design" style="display:none"/><path fill="none" class="primary design" style="display:none"/><path fill="none" class="primary design" style="display:none"/></g><g class="com" style="display:none"><path/><path/><path/><path/><path/><path/><path/><path/><path/><path/><path/><path/></g></g></svg>